<?xml version="1.0" standalone="no"?><!DOCTYPE svg PUBLIC "-//W3C//DTD SVG 1.1//EN" "http://www.w3.org/Graphics/SVG/1.1/DTD/svg11.dtd"><svg t="1682498407731" class="icon" viewBox="0 0 1024 1024" version="1.1" xmlns="http://www.w3.org/2000/svg" p-id="11716" xmlns:xlink="http://www.w3.org/1999/xlink" width="64" height="64"><path d="M581.4 1004.888c-70.304 0-137.056-21.336-170.496-54.584-17.96-17.856-21.728-34.952-21.728-46.152 0-13.384 0.032-25.064 0.064-36.52 0.056-22.176 0.12-43.528-0.064-74.936a24.008 24.008 0 0 1 23.864-24.144h0.144a24 24 0 0 1 24 23.864c0.176 31.576 0.12 53.048 0.064 75.352-0.032 11.416-0.064 23.056-0.064 36.392 0 2.112 1.984 6.552 7.576 12.112 19.944 19.832 71.6 41.032 138.344 40.616 40.464-0.224 78.512-8.072 107.16-22.08 24.808-12.136 33.768-24.896 33.736-30.504-0.024-3.736 0-160.568 0-160.568h48s-0.024 156.584 0 160.304c0.168 28.44-21.376 54.688-60.648 73.888-34.992 17.12-80.448 26.688-127.976 26.96h-1.976z" p-id="11717" fill="rgb(244 114 182)"></path><path d="M425.696 805.488a23.808 23.808 0 0 1-12.752-3.688c-46.344-29.152-76.592-71.792-111.616-121.168-7.816-11.016-15.88-22.4-24.448-34.056-10.152-13.816-19.632-25.544-27.992-35.896-29.272-36.224-54.552-67.512-25.928-110.456 7.768-11.656 20.168-18.872 34.912-20.336 28.432-2.8 64.952 15.848 100.288 51.2 7.536 7.528 12.576 11.704 15.816 14.016 3.56-8.728 9.384-31.336 12.4-88.632l13.92-250.584c0.32-34.752 23.44-69.688 67.368-69.688 36.672 0 64.336 30.272 64.336 70.416v209.264C531.992 429.144 522.224 440 508.968 440a24 24 0 0 1-24-24V208c0-0.912-1.16-23.8-17.304-23.8-17.48 0-19.368 15.672-19.368 22.416 0 0.448-0.008 0.888-0.032 1.328l-13.952 251.12c-4.664 88.608-15.96 123.736-43.152 134.168-27.976 10.744-53.328-14.584-66.936-28.2-32.232-32.232-55.664-38.632-61.84-37.392-7.248 11.024-6.912 14.8 23.848 52.872 8.688 10.752 18.528 22.936 29.336 37.64 8.728 11.88 16.96 23.488 24.92 34.704 32.056 45.2 59.744 84.24 98.016 108.312a24 24 0 0 1-12.808 44.32zM754.136 762.72a23.992 23.992 0 0 1-22.528-32.256c2.432-7.504 12.112-57.264 12.496-84.72l0.08-6.192c1.144-83.216 1.144-83.216-6.848-144.28l47.584-6.336c8.368 64 8.44 65.416 7.264 151.272l-0.096 6.192c-0.448 32.432-11.384 89.856-15.488 100.76a24 24 0 0 1-22.464 15.56z" p-id="11718" fill="rgb(244 114 182)"></path><path d="M504.296 509.632c-13.256 0-20.296-12.376-20.296-25.632v-120c0-36.312 25.84-69.768 62.152-69.768S612 323.768 612 360.08v90.68c0 13.256-10.744 24-24 24s-24-9.504-24-22.76v-96c0-10.008-7.84-13.768-17.848-13.768s-17.856 7.84-17.856 17.848v125.552a24 24 0 0 1-24 24zM768.064 607.288a24 24 0 0 1-23.904-22.16l-13.952-181.36a23.576 23.576 0 0 1-0.072-1.84c0-10.008-7.84-17.848-17.848-17.848S692 393.992 692 404v80c0 13.256-8.304 25.632-21.56 25.632s-24-10.744-24-24V401.928c0-36.312 29.536-65.848 65.848-65.848 35.968 0 65.296 28.984 65.84 64.832l13.888 180.536a24 24 0 0 1-23.952 25.84zM349.568 180h-71.872a16 16 0 0 1 0-32h71.872a16 16 0 0 1 0 32zM308 285.4a16 16 0 0 1-11.312-27.312l62.776-62.784a16 16 0 1 1 22.624 22.624l-62.776 62.784c-3.12 3.12-7.216 4.688-11.312 4.688zM370.496 138.912a15.92 15.92 0 0 1-11.312-4.688l-55.8-55.808a16 16 0 1 1 22.624-22.624l55.8 55.808a16 16 0 0 1-11.312 27.312zM644.656 180h-71.872a16 16 0 0 1 0-32h71.872a16 16 0 0 1 0 32zM551.856 145.888a16 16 0 0 1-11.312-27.312l62.784-62.784a16 16 0 1 1 22.624 22.624l-62.784 62.784a15.92 15.92 0 0 1-11.312 4.688zM607.656 285.4a15.92 15.92 0 0 1-11.312-4.688l-55.808-55.808a16 16 0 1 1 22.624-22.624l55.808 55.808a16 16 0 0 1-11.312 27.312zM591.968 839.52c-73.92 0-126.832-15.696-182.592-54.152a16 16 0 1 1 18.168-26.344c50.584 34.88 96.72 48.496 164.424 48.496h0.288c70.92-0.032 116.336-18.832 147.248-60.952a16 16 0 0 1 25.792 18.936c-37.032 50.464-92.016 73.976-173.032 74.016h-0.296z" p-id="11719" fill="rgb(244 114 182)"></path><path d="M670.44 530.56a24 24 0 0 1-24-24V381.008c0-10.008-7.84-17.848-17.856-17.848-10.008 0-17.848 7.84-17.848 17.848v111.6c0 13.256-10.744 24-24 24S564 505.256 564 492v-112c0-36.312 28.272-64.84 64.584-64.84S692 343.688 692 380v128c0 13.264-8.312 22.56-21.56 22.56z" p-id="11720" fill="rgb(244 114 182)"></path></svg>