<?xml version="1.0" standalone="no"?><!DOCTYPE svg PUBLIC "-//W3C//DTD SVG 1.1//EN" "http://www.w3.org/Graphics/SVG/1.1/DTD/svg11.dtd"><svg t="1682427520201" class="icon" viewBox="0 0 1024 1024" version="1.1" xmlns="http://www.w3.org/2000/svg" p-id="27234" xmlns:xlink="http://www.w3.org/1999/xlink" width="64" height="64"><path d="M470.722048 196.089856c-11.4176 0.003584-21.991936 4.228096-31.010304 10.043392l-0.014848 0.008704-0.013824 0.01024c-48.483328 31.39584-214.459904 146.58048-250.945024 171.6224l-0.001024 0.001536h-0.001024c-32.957952 22.628352-55.159296 56.782848-67.922944 97.24672l-0.002048 0.008192-0.002048 0.007168c-13.287424 42.24768-11.582464 88.270336-11.453952 126.81472l0.001024 0.01024v0.01024c0.13056 29.02272 0.822272 54.350848 8.350208 85.067776l0.001536 0.00768c10.942976 44.954624 32.137216 77.484032 62.06976 97.42592 29.93152 19.941376 66.87488 27.017216 108.3264 27.145216 149.649408 0.561664 299.387392 0.76288 449.117184 0h0.0256c16.49152-0.108032 32.23552-7.041024 42.05312-19.291136 9.817088-12.248576 13.832704-28.09088 14.04416-45.47072 0.14848-11.657216-1.48992-22.674944-5.277184-32.518144h16.576c16.144384 0 30.942208-4.599808 41.550336-14.292992 10.604032-9.690112 16.027648-22.84544 18.845696-36.70016v-0.003584c3.933696-19.27168 2.07616-38.301184-5.588992-54.270464 16.868352-1.362432 31.761408-7.732224 41.33888-19.407872 10.764288-13.121024 13.899776-29.80096 13.955072-47.47264 0.05888-18.449408-4.418048-36.055552-14.751744-50.056192s-27.531264-23.529472-46.882304-23.55712H853.09952c-7.04512-0.005632-13.39392 0.004096-21.391872 0 3.848192-9.596928 5.53984-20.390912 5.505024-31.747072v-0.057856c-0.116736-18.315264-4.736512-35.816448-15.12192-49.729024-10.385408-13.912576-27.550208-23.425536-46.892032-23.426048-114.90304-0.45312-228.481024 1.104384-325.070336 0.615936 5.03296-5.06112 9.921536-9.9968 15.293952-15.33952 16.630784-16.539648 32.6144-32.124416 40.871424-42.809344 19.74016-25.406976 22.685184-59.828224 6.0672-85.14816-8.762368-13.385216-21.610496-22.441984-35.405312-24.326656a45.846016 45.846016 0 0 0-5.126144-0.4096v0.001536a46.15424 46.15424 0 0 0-1.106944-0.013312z m0.280064 35.854336a8.86272 8.86272 0 0 1 1.099776 0.077824c2.71616 0.3712 5.624832 1.34144 10.27584 8.451072l0.009216 0.0128 0.008192 0.013312c6.497792 9.894912 6.211072 29.85216-4.414976 43.515904l-0.01792 0.02304-0.018432 0.02304c-3.863552 5.00224-21.224448 22.843392-37.794816 39.322624-16.570368 16.479744-32.324608 31.690752-40.118784 41.186304-7.453184 9.079808-4.718592 16.715264-2.697216 21.494784 2.021376 4.77952 4.33408 10.361344 14.642176 12.81024 3.086336 0.733184 3.25632 0.52224 4.243968 0.589824 0.987648 0.068096 2.008576 0.114688 3.208704 0.158208 2.400768 0.086528 5.472256 0.152064 9.264128 0.207872 115.95008 0.70656 230.616576-0.63488 346.475008-0.47104h0.032256c8.812032 0 13.597184 2.896384 18.171904 9.025024 4.571648 6.124544 7.919616 16.288256 8.002048 28.493824 0.033792 12.66176-2.998784 20.38784-6.685184 24.644096-3.6864 4.256256-8.62464 6.92224-19.1872 6.957056H527.36v35.84h248.212992c34.036736 0.003072 51.98848-0.021504 77.497856 0 8.861696 0.01536 13.58336 2.898944 18.085888 8.999936 4.5056 6.104064 7.78752 16.295424 7.748096 28.6592v0.001024c-0.04096 13.220864-2.737152 21.092352-5.824 24.85504-3.086848 3.762688-7.494656 6.518784-20.214784 6.605824-4.31616 0.029696-35.229696 0.007168-48.057856 0.022016-0.203264-0.00256-0.402432-0.021504-0.606208-0.022016-92.276224-0.4352-184.55296-0.001024-276.829184-0.001024H527.36l-0.0128 35.84h0.0128c0.022016 0 195.848704 0.122368 277.16096 0.024064 10.0864 0.142848 16.133632 4.20352 20.958208 12.083712 4.896256 7.997952 7.333376 20.53632 4.44416 34.691072v0.014336c-1.913344 9.41056-4.819456 14.578176-7.903232 17.395712-3.083776 2.818048-7.33952 4.911104-17.374208 4.911104-92.427776-0.044032-184.854528-0.231424-277.282816 0h-0.047104l0.047104 35.84h209.619968c7.529984 0.049152 10.878464 2.052096 14.31552 6.644224 3.43808 4.591616 6.36928 13.128704 6.211584 25.421824v0.0128c-0.145408 11.986944-3.047424 19.595264-6.173184 23.495168-3.12576 3.899904-6.35136 5.814784-14.322176 5.867008-149.566976 0.761856-299.190272 0.561664-448.77312 0h-0.0128c-37.403136-0.114176-66.793472-6.621184-88.576-21.1328-21.7856-14.512128-37.686784-37.308928-47.123968-76.082176l-0.004096-0.01536-0.00256-0.014848c-6.58944-26.875904-7.19872-48.13312-7.327232-76.70272v-0.020992c-0.131072-39.20384-0.882688-81.9456 9.802752-115.920896 10.952704-34.714624 28.665856-61.057536 54.022144-78.467072l0.002048-0.001024c36.928-25.34656 203.89376-141.13792 250.112-171.06944l0.002048-0.000512c4.339712-2.79808 7.936-3.98848 10.608128-4.251136 0.44544-0.044032 0.864768-0.062464 1.257984-0.057856z" p-id="27235" fill="#DAF1B9"></path></svg>